<svg xmlns="http://www.w3.org/2000/svg" width="1800" height="3400" viewBox="0 0 1800 3400">
    <title>Jurex — Inventário de Telas</title>
    <defs>
      <filter id="shadow" x="-20%" y="-20%" width="140%" height="140%">
        <feDropShadow dx="0" dy="6" stdDeviation="10" flood-opacity="0.12"/>
      </filter>
      <style>
        .title { font: 700 44px Inter, Arial, sans-serif; fill:#111827; }
        .subtitle { font: 500 22px Inter, Arial, sans-serif; fill:#4B5563; }
        .h1 { font: 700 30px Inter, Arial, sans-serif; fill:#111827; }
        .h2 { font: 700 22px Inter, Arial, sans-serif; fill:#111827; }
        .body { font: 400 17px Inter, Arial, sans-serif; fill:#374151; }
        .small { font: 400 14px Inter, Arial, sans-serif; fill:#6B7280; }
        .label { font: 600 14px Inter, Arial, sans-serif; fill:#065F46; }
      </style>
    </defs>
    <rect width="100%" height="100%" fill="#F8FAFC"/>
    
<text x="80" y="95" class="title">JUREX — Inventário de telas</text>
<text x="80" y="135" class="subtitle">Checklist para criar os frames e controlar o progresso no Figma</text>
<g filter="url(#shadow)"><rect x="80" y="210" width="1520" height="264" rx="20" fill="#FFFFFF" stroke="#E5E7EB"/><text x="110" y="254" class="h2">Área pública</text>
<rect x="110" y="282" width="22" height="22" rx="5" fill="#FFFFFF" stroke="#9CA3AF"/><text x="144" y="300" class="body">Landing</text>
<rect x="600" y="282" width="22" height="22" rx="5" fill="#FFFFFF" stroke="#9CA3AF"/><text x="634" y="300" class="body">Recursos</text>
<rect x="1090" y="282" width="22" height="22" rx="5" fill="#FFFFFF" stroke="#9CA3AF"/><text x="1124" y="300" class="body">Planos</text>
<rect x="110" y="330" width="22" height="22" rx="5" fill="#FFFFFF" stroke="#9CA3AF"/><text x="144" y="348" class="body">Segurança/LGPD</text>
<rect x="600" y="330" width="22" height="22" rx="5" fill="#FFFFFF" stroke="#9CA3AF"/><text x="634" y="348" class="body">FAQ</text>
<rect x="1090" y="330" width="22" height="22" rx="5" fill="#FFFFFF" stroke="#9CA3AF"/><text x="1124" y="348" class="body">Contato</text>
<rect x="110" y="378" width="22" height="22" rx="5" fill="#FFFFFF" stroke="#9CA3AF"/><text x="144" y="396" class="body">Termos</text>
<rect x="600" y="378" width="22" height="22" rx="5" fill="#FFFFFF" stroke="#9CA3AF"/><text x="634" y="396" class="body">Privacidade</text>
</g>
<g filter="url(#shadow)"><rect x="80" y="502" width="1520" height="264" rx="20" fill="#FFFFFF" stroke="#E5E7EB"/><text x="110" y="546" class="h2">Autenticação</text>
<rect x="110" y="574" width="22" height="22" rx="5" fill="#FFFFFF" stroke="#9CA3AF"/><text x="144" y="592" class="body">Onboarding 1–4</text>
<rect x="600" y="574" width="22" height="22" rx="5" fill="#FFFFFF" stroke="#9CA3AF"/><text x="634" y="592" class="body">Login</text>
<rect x="1090" y="574" width="22" height="22" rx="5" fill="#FFFFFF" stroke="#9CA3AF"/><text x="1124" y="592" class="body">Cadastro 1–4</text>
<rect x="110" y="622" width="22" height="22" rx="5" fill="#FFFFFF" stroke="#9CA3AF"/><text x="144" y="640" class="body">Confirmar e-mail</text>
<rect x="600" y="622" width="22" height="22" rx="5" fill="#FFFFFF" stroke="#9CA3AF"/><text x="634" y="640" class="body">2FA</text>
<rect x="1090" y="622" width="22" height="22" rx="5" fill="#FFFFFF" stroke="#9CA3AF"/><text x="1124" y="640" class="body">Esqueci senha</text>
<rect x="110" y="670" width="22" height="22" rx="5" fill="#FFFFFF" stroke="#9CA3AF"/><text x="144" y="688" class="body">Nova senha</text>
<rect x="600" y="670" width="22" height="22" rx="5" fill="#FFFFFF" stroke="#9CA3AF"/><text x="634" y="688" class="body">Conta bloqueada</text>
</g>
<g filter="url(#shadow)"><rect x="80" y="794" width="1520" height="216" rx="20" fill="#FFFFFF" stroke="#E5E7EB"/><text x="110" y="838" class="h2">Dashboard</text>
<rect x="110" y="866" width="22" height="22" rx="5" fill="#FFFFFF" stroke="#9CA3AF"/><text x="144" y="884" class="body">Vazio</text>
<rect x="600" y="866" width="22" height="22" rx="5" fill="#FFFFFF" stroke="#9CA3AF"/><text x="634" y="884" class="body">Carregando</text>
<rect x="1090" y="866" width="22" height="22" rx="5" fill="#FFFFFF" stroke="#9CA3AF"/><text x="1124" y="884" class="body">Com dados</text>
<rect x="110" y="914" width="22" height="22" rx="5" fill="#FFFFFF" stroke="#9CA3AF"/><text x="144" y="932" class="body">Erro</text>
<rect x="600" y="914" width="22" height="22" rx="5" fill="#FFFFFF" stroke="#9CA3AF"/><text x="634" y="932" class="body">Offline</text>
<rect x="1090" y="914" width="22" height="22" rx="5" fill="#FFFFFF" stroke="#9CA3AF"/><text x="1124" y="932" class="body">Limite do plano</text>
</g>
<g filter="url(#shadow)"><rect x="80" y="1038" width="1520" height="312" rx="20" fill="#FFFFFF" stroke="#E5E7EB"/><text x="110" y="1082" class="h2">Clientes</text>
<rect x="110" y="1110" width="22" height="22" rx="5" fill="#FFFFFF" stroke="#9CA3AF"/><text x="144" y="1128" class="body">Lista</text>
<rect x="600" y="1110" width="22" height="22" rx="5" fill="#FFFFFF" stroke="#9CA3AF"/><text x="634" y="1128" class="body">Filtros</text>
<rect x="1090" y="1110" width="22" height="22" rx="5" fill="#FFFFFF" stroke="#9CA3AF"/><text x="1124" y="1128" class="body">Novo cliente 1–5</text>
<rect x="110" y="1158" width="22" height="22" rx="5" fill="#FFFFFF" stroke="#9CA3AF"/><text x="144" y="1176" class="body">Detalhe/Resumo</text>
<rect x="600" y="1158" width="22" height="22" rx="5" fill="#FFFFFF" stroke="#9CA3AF"/><text x="634" y="1176" class="body">Contratos</text>
<rect x="1090" y="1158" width="22" height="22" rx="5" fill="#FFFFFF" stroke="#9CA3AF"/><text x="1124" y="1176" class="body">Parcelas</text>
<rect x="110" y="1206" width="22" height="22" rx="5" fill="#FFFFFF" stroke="#9CA3AF"/><text x="144" y="1224" class="body">Pagamentos</text>
<rect x="600" y="1206" width="22" height="22" rx="5" fill="#FFFFFF" stroke="#9CA3AF"/><text x="634" y="1224" class="body">Documentos</text>
<rect x="1090" y="1206" width="22" height="22" rx="5" fill="#FFFFFF" stroke="#9CA3AF"/><text x="1124" y="1224" class="body">Histórico</text>
<rect x="110" y="1254" width="22" height="22" rx="5" fill="#FFFFFF" stroke="#9CA3AF"/><text x="144" y="1272" class="body">Editar</text>
<rect x="600" y="1254" width="22" height="22" rx="5" fill="#FFFFFF" stroke="#9CA3AF"/><text x="634" y="1272" class="body">Excluir</text>
</g>
<g filter="url(#shadow)"><rect x="80" y="1378" width="1520" height="360" rx="20" fill="#FFFFFF" stroke="#E5E7EB"/><text x="110" y="1422" class="h2">Contratos</text>
<rect x="110" y="1450" width="22" height="22" rx="5" fill="#FFFFFF" stroke="#9CA3AF"/><text x="144" y="1468" class="body">Lista</text>
<rect x="600" y="1450" width="22" height="22" rx="5" fill="#FFFFFF" stroke="#9CA3AF"/><text x="634" y="1468" class="body">Filtros</text>
<rect x="1090" y="1450" width="22" height="22" rx="5" fill="#FFFFFF" stroke="#9CA3AF"/><text x="1124" y="1468" class="body">Novo contrato 1–6</text>
<rect x="110" y="1498" width="22" height="22" rx="5" fill="#FFFFFF" stroke="#9CA3AF"/><text x="144" y="1516" class="body">Simulação</text>
<rect x="600" y="1498" width="22" height="22" rx="5" fill="#FFFFFF" stroke="#9CA3AF"/><text x="634" y="1516" class="body">Revisão</text>
<rect x="1090" y="1498" width="22" height="22" rx="5" fill="#FFFFFF" stroke="#9CA3AF"/><text x="1124" y="1516" class="body">Detalhe</text>
<rect x="110" y="1546" width="22" height="22" rx="5" fill="#FFFFFF" stroke="#9CA3AF"/><text x="144" y="1564" class="body">Parcelas</text>
<rect x="600" y="1546" width="22" height="22" rx="5" fill="#FFFFFF" stroke="#9CA3AF"/><text x="634" y="1564" class="body">Pagamentos</text>
<rect x="1090" y="1546" width="22" height="22" rx="5" fill="#FFFFFF" stroke="#9CA3AF"/><text x="1124" y="1564" class="body">Documentos</text>
<rect x="110" y="1594" width="22" height="22" rx="5" fill="#FFFFFF" stroke="#9CA3AF"/><text x="144" y="1612" class="body">Garantias</text>
<rect x="600" y="1594" width="22" height="22" rx="5" fill="#FFFFFF" stroke="#9CA3AF"/><text x="634" y="1612" class="body">Histórico</text>
<rect x="1090" y="1594" width="22" height="22" rx="5" fill="#FFFFFF" stroke="#9CA3AF"/><text x="1124" y="1612" class="body">Renegociar</text>
<rect x="110" y="1642" width="22" height="22" rx="5" fill="#FFFFFF" stroke="#9CA3AF"/><text x="144" y="1660" class="body">Cancelar</text>
<rect x="600" y="1642" width="22" height="22" rx="5" fill="#FFFFFF" stroke="#9CA3AF"/><text x="634" y="1660" class="body">Arquivar</text>
</g>
<g filter="url(#shadow)"><rect x="80" y="1766" width="1520" height="312" rx="20" fill="#FFFFFF" stroke="#E5E7EB"/><text x="110" y="1810" class="h2">Parcelas e pagamentos</text>
<rect x="110" y="1838" width="22" height="22" rx="5" fill="#FFFFFF" stroke="#9CA3AF"/><text x="144" y="1856" class="body">Hoje</text>
<rect x="600" y="1838" width="22" height="22" rx="5" fill="#FFFFFF" stroke="#9CA3AF"/><text x="634" y="1856" class="body">Próximas</text>
<rect x="1090" y="1838" width="22" height="22" rx="5" fill="#FFFFFF" stroke="#9CA3AF"/><text x="1124" y="1856" class="body">Atrasadas</text>
<rect x="110" y="1886" width="22" height="22" rx="5" fill="#FFFFFF" stroke="#9CA3AF"/><text x="144" y="1904" class="body">Pagas</text>
<rect x="600" y="1886" width="22" height="22" rx="5" fill="#FFFFFF" stroke="#9CA3AF"/><text x="634" y="1904" class="body">Todas</text>
<rect x="1090" y="1886" width="22" height="22" rx="5" fill="#FFFFFF" stroke="#9CA3AF"/><text x="1124" y="1904" class="body">Detalhe da parcela</text>
<rect x="110" y="1934" width="22" height="22" rx="5" fill="#FFFFFF" stroke="#9CA3AF"/><text x="144" y="1952" class="body">Registrar pagamento</text>
<rect x="600" y="1934" width="22" height="22" rx="5" fill="#FFFFFF" stroke="#9CA3AF"/><text x="634" y="1952" class="body">Pagamento parcial</text>
<rect x="1090" y="1934" width="22" height="22" rx="5" fill="#FFFFFF" stroke="#9CA3AF"/><text x="1124" y="1952" class="body">Antecipação</text>
<rect x="110" y="1982" width="22" height="22" rx="5" fill="#FFFFFF" stroke="#9CA3AF"/><text x="144" y="2000" class="body">Estorno</text>
<rect x="600" y="1982" width="22" height="22" rx="5" fill="#FFFFFF" stroke="#9CA3AF"/><text x="634" y="2000" class="body">Comprovante</text>
<rect x="1090" y="1982" width="22" height="22" rx="5" fill="#FFFFFF" stroke="#9CA3AF"/><text x="1124" y="2000" class="body">Compartilhar</text>
</g>
<g filter="url(#shadow)"><rect x="80" y="2106" width="1520" height="264" rx="20" fill="#FFFFFF" stroke="#E5E7EB"/><text x="110" y="2150" class="h2">Relatórios</text>
<rect x="110" y="2178" width="22" height="22" rx="5" fill="#FFFFFF" stroke="#9CA3AF"/><text x="144" y="2196" class="body">Visão geral</text>
<rect x="600" y="2178" width="22" height="22" rx="5" fill="#FFFFFF" stroke="#9CA3AF"/><text x="634" y="2196" class="body">Recebimentos</text>
<rect x="1090" y="2178" width="22" height="22" rx="5" fill="#FFFFFF" stroke="#9CA3AF"/><text x="1124" y="2196" class="body">Inadimplência</text>
<rect x="110" y="2226" width="22" height="22" rx="5" fill="#FFFFFF" stroke="#9CA3AF"/><text x="144" y="2244" class="body">Fluxo de caixa</text>
<rect x="600" y="2226" width="22" height="22" rx="5" fill="#FFFFFF" stroke="#9CA3AF"/><text x="634" y="2244" class="body">Lucro</text>
<rect x="1090" y="2226" width="22" height="22" rx="5" fill="#FFFFFF" stroke="#9CA3AF"/><text x="1124" y="2244" class="body">Contratos</text>
<rect x="110" y="2274" width="22" height="22" rx="5" fill="#FFFFFF" stroke="#9CA3AF"/><text x="144" y="2292" class="body">Cobradores</text>
<rect x="600" y="2274" width="22" height="22" rx="5" fill="#FFFFFF" stroke="#9CA3AF"/><text x="634" y="2292" class="body">Exportar</text>
<rect x="1090" y="2274" width="22" height="22" rx="5" fill="#FFFFFF" stroke="#9CA3AF"/><text x="1124" y="2292" class="body">Histórico de exportações</text>
</g>
<g filter="url(#shadow)"><rect x="80" y="2398" width="1520" height="360" rx="20" fill="#FFFFFF" stroke="#E5E7EB"/><text x="110" y="2442" class="h2">Configurações</text>
<rect x="110" y="2470" width="22" height="22" rx="5" fill="#FFFFFF" stroke="#9CA3AF"/><text x="144" y="2488" class="body">Perfil</text>
<rect x="600" y="2470" width="22" height="22" rx="5" fill="#FFFFFF" stroke="#9CA3AF"/><text x="634" y="2488" class="body">Empresa</text>
<rect x="1090" y="2470" width="22" height="22" rx="5" fill="#FFFFFF" stroke="#9CA3AF"/><text x="1124" y="2488" class="body">Usuários</text>
<rect x="110" y="2518" width="22" height="22" rx="5" fill="#FFFFFF" stroke="#9CA3AF"/><text x="144" y="2536" class="body">Permissões</text>
<rect x="600" y="2518" width="22" height="22" rx="5" fill="#FFFFFF" stroke="#9CA3AF"/><text x="634" y="2536" class="body">Cobradores</text>
<rect x="1090" y="2518" width="22" height="22" rx="5" fill="#FFFFFF" stroke="#9CA3AF"/><text x="1124" y="2536" class="body">Plano</text>
<rect x="110" y="2566" width="22" height="22" rx="5" fill="#FFFFFF" stroke="#9CA3AF"/><text x="144" y="2584" class="body">Cobrança</text>
<rect x="600" y="2566" width="22" height="22" rx="5" fill="#FFFFFF" stroke="#9CA3AF"/><text x="634" y="2584" class="body">Notificações</text>
<rect x="1090" y="2566" width="22" height="22" rx="5" fill="#FFFFFF" stroke="#9CA3AF"/><text x="1124" y="2584" class="body">Segurança</text>
<rect x="110" y="2614" width="22" height="22" rx="5" fill="#FFFFFF" stroke="#9CA3AF"/><text x="144" y="2632" class="body">Aparência</text>
<rect x="600" y="2614" width="22" height="22" rx="5" fill="#FFFFFF" stroke="#9CA3AF"/><text x="634" y="2632" class="body">Documentos</text>
<rect x="1090" y="2614" width="22" height="22" rx="5" fill="#FFFFFF" stroke="#9CA3AF"/><text x="1124" y="2632" class="body">Mensagens</text>
<rect x="110" y="2662" width="22" height="22" rx="5" fill="#FFFFFF" stroke="#9CA3AF"/><text x="144" y="2680" class="body">Dados e privacidade</text>
<rect x="600" y="2662" width="22" height="22" rx="5" fill="#FFFFFF" stroke="#9CA3AF"/><text x="634" y="2680" class="body">Suporte</text>
</g>
<g filter="url(#shadow)"><rect x="80" y="2786" width="1520" height="312" rx="20" fill="#FFFFFF" stroke="#E5E7EB"/><text x="110" y="2830" class="h2">Admin SaaS</text>
<rect x="110" y="2858" width="22" height="22" rx="5" fill="#FFFFFF" stroke="#9CA3AF"/><text x="144" y="2876" class="body">Dashboard</text>
<rect x="600" y="2858" width="22" height="22" rx="5" fill="#FFFFFF" stroke="#9CA3AF"/><text x="634" y="2876" class="body">Empresas</text>
<rect x="1090" y="2858" width="22" height="22" rx="5" fill="#FFFFFF" stroke="#9CA3AF"/><text x="1124" y="2876" class="body">Usuários</text>
<rect x="110" y="2906" width="22" height="22" rx="5" fill="#FFFFFF" stroke="#9CA3AF"/><text x="144" y="2924" class="body">Planos</text>
<rect x="600" y="2906" width="22" height="22" rx="5" fill="#FFFFFF" stroke="#9CA3AF"/><text x="634" y="2924" class="body">Assinaturas</text>
<rect x="1090" y="2906" width="22" height="22" rx="5" fill="#FFFFFF" stroke="#9CA3AF"/><text x="1124" y="2924" class="body">Pagamentos</text>
<rect x="110" y="2954" width="22" height="22" rx="5" fill="#FFFFFF" stroke="#9CA3AF"/><text x="144" y="2972" class="body">Cupons</text>
<rect x="600" y="2954" width="22" height="22" rx="5" fill="#FFFFFF" stroke="#9CA3AF"/><text x="634" y="2972" class="body">Tickets</text>
<rect x="1090" y="2954" width="22" height="22" rx="5" fill="#FFFFFF" stroke="#9CA3AF"/><text x="1124" y="2972" class="body">Logs</text>
<rect x="110" y="3002" width="22" height="22" rx="5" fill="#FFFFFF" stroke="#9CA3AF"/><text x="144" y="3020" class="body">Auditoria</text>
<rect x="600" y="3002" width="22" height="22" rx="5" fill="#FFFFFF" stroke="#9CA3AF"/><text x="634" y="3020" class="body">Configuração</text>
<rect x="1090" y="3002" width="22" height="22" rx="5" fill="#FFFFFF" stroke="#9CA3AF"/><text x="1124" y="3020" class="body">Saúde do sistema</text>
</g>
</svg>