<svg xmlns="http://www.w3.org/2000/svg" width="1800" height="2600" viewBox="0 0 1800 2600">
    <title>Jurex — Arquitetura da Informação</title>
    <defs>
      <filter id="shadow" x="-20%" y="-20%" width="140%" height="140%">
        <feDropShadow dx="0" dy="6" stdDeviation="10" flood-opacity="0.12"/>
      </filter>
      <style>
        .title { font: 700 44px Inter, Arial, sans-serif; fill:#111827; }
        .subtitle { font: 500 22px Inter, Arial, sans-serif; fill:#4B5563; }
        .h1 { font: 700 30px Inter, Arial, sans-serif; fill:#111827; }
        .h2 { font: 700 22px Inter, Arial, sans-serif; fill:#111827; }
        .body { font: 400 17px Inter, Arial, sans-serif; fill:#374151; }
        .small { font: 400 14px Inter, Arial, sans-serif; fill:#6B7280; }
        .label { font: 600 14px Inter, Arial, sans-serif; fill:#065F46; }
      </style>
    </defs>
    <rect width="100%" height="100%" fill="#F8FAFC"/>
    
<text x="80" y="95" class="title">JUREX — Arquitetura da Informação</text>
<text x="80" y="135" class="subtitle">Mapa completo para importar no Figma e transformar em páginas, frames e componentes</text>
<g filter="url(#shadow)">
<rect x="80" y="220" width="460" height="580" rx="20" fill="#FFFFFF" stroke="#E5E7EB"/>
<rect x="80" y="220" width="8" height="580" rx="4" fill="#10B981"/>
<text x="108" y="262" class="h2">Área pública</text>
<circle cx="114" cy="290" r="4" fill="#10B981"/>
<text x="128" y="296" class="body">
<tspan x="128" dy="0">Landing page</tspan>
</text>
<circle cx="114" cy="320" r="4" fill="#10B981"/>
<text x="128" y="326" class="body">
<tspan x="128" dy="0">Recursos</tspan>
</text>
<circle cx="114" cy="350" r="4" fill="#10B981"/>
<text x="128" y="356" class="body">
<tspan x="128" dy="0">Planos</tspan>
</text>
<circle cx="114" cy="380" r="4" fill="#10B981"/>
<text x="128" y="386" class="body">
<tspan x="128" dy="0">Segurança e LGPD</tspan>
</text>
<circle cx="114" cy="410" r="4" fill="#10B981"/>
<text x="128" y="416" class="body">
<tspan x="128" dy="0">FAQ</tspan>
</text>
<circle cx="114" cy="440" r="4" fill="#10B981"/>
<text x="128" y="446" class="body">
<tspan x="128" dy="0">Contato</tspan>
</text>
<circle cx="114" cy="470" r="4" fill="#10B981"/>
<text x="128" y="476" class="body">
<tspan x="128" dy="0">Termos de uso</tspan>
</text>
<circle cx="114" cy="500" r="4" fill="#10B981"/>
<text x="128" y="506" class="body">
<tspan x="128" dy="0">Política de privacidade</tspan>
</text>
</g>
<g filter="url(#shadow)">
<rect x="610" y="220" width="460" height="580" rx="20" fill="#FFFFFF" stroke="#E5E7EB"/>
<rect x="610" y="220" width="8" height="580" rx="4" fill="#10B981"/>
<text x="638" y="262" class="h2">Autenticação</text>
<circle cx="644" cy="290" r="4" fill="#10B981"/>
<text x="658" y="296" class="body">
<tspan x="658" dy="0">Login</tspan>
</text>
<circle cx="644" cy="320" r="4" fill="#10B981"/>
<text x="658" y="326" class="body">
<tspan x="658" dy="0">Criar conta</tspan>
</text>
<circle cx="644" cy="350" r="4" fill="#10B981"/>
<text x="658" y="356" class="body">
<tspan x="658" dy="0">Recuperar senha</tspan>
</text>
<circle cx="644" cy="380" r="4" fill="#10B981"/>
<text x="658" y="386" class="body">
<tspan x="658" dy="0">Confirmar e-mail</tspan>
</text>
<circle cx="644" cy="410" r="4" fill="#10B981"/>
<text x="658" y="416" class="body">
<tspan x="658" dy="0">2FA</tspan>
</text>
<circle cx="644" cy="440" r="4" fill="#10B981"/>
<text x="658" y="446" class="body">
<tspan x="658" dy="0">Onboarding</tspan>
</text>
<circle cx="644" cy="470" r="4" fill="#10B981"/>
<text x="658" y="476" class="body">
<tspan x="658" dy="0">Configuração da empresa</tspan>
</text>
</g>
<g filter="url(#shadow)">
<rect x="1140" y="220" width="460" height="580" rx="20" fill="#FFFFFF" stroke="#E5E7EB"/>
<rect x="1140" y="220" width="8" height="580" rx="4" fill="#10B981"/>
<text x="1168" y="262" class="h2">Aplicação principal</text>
<circle cx="1174" cy="290" r="4" fill="#10B981"/>
<text x="1188" y="296" class="body">
<tspan x="1188" dy="0">Dashboard</tspan>
</text>
<circle cx="1174" cy="320" r="4" fill="#10B981"/>
<text x="1188" y="326" class="body">
<tspan x="1188" dy="0">Clientes</tspan>
</text>
<circle cx="1174" cy="350" r="4" fill="#10B981"/>
<text x="1188" y="356" class="body">
<tspan x="1188" dy="0">Contratos</tspan>
</text>
<circle cx="1174" cy="380" r="4" fill="#10B981"/>
<text x="1188" y="386" class="body">
<tspan x="1188" dy="0">Parcelas</tspan>
</text>
<circle cx="1174" cy="410" r="4" fill="#10B981"/>
<text x="1188" y="416" class="body">
<tspan x="1188" dy="0">Recebimentos</tspan>
</text>
<circle cx="1174" cy="440" r="4" fill="#10B981"/>
<text x="1188" y="446" class="body">
<tspan x="1188" dy="0">Cobranças</tspan>
</text>
<circle cx="1174" cy="470" r="4" fill="#10B981"/>
<text x="1188" y="476" class="body">
<tspan x="1188" dy="0">Cobradores</tspan>
</text>
<circle cx="1174" cy="500" r="4" fill="#10B981"/>
<text x="1188" y="506" class="body">
<tspan x="1188" dy="0">Relatórios</tspan>
</text>
<circle cx="1174" cy="530" r="4" fill="#10B981"/>
<text x="1188" y="536" class="body">
<tspan x="1188" dy="0">Notificações</tspan>
</text>
<circle cx="1174" cy="560" r="4" fill="#10B981"/>
<text x="1188" y="566" class="body">
<tspan x="1188" dy="0">Documentos</tspan>
</text>
<circle cx="1174" cy="590" r="4" fill="#10B981"/>
<text x="1188" y="596" class="body">
<tspan x="1188" dy="0">Configurações</tspan>
</text>
</g>
<g filter="url(#shadow)">
<rect x="80" y="900" width="460" height="580" rx="20" fill="#FFFFFF" stroke="#E5E7EB"/>
<rect x="80" y="900" width="8" height="580" rx="4" fill="#10B981"/>
<text x="108" y="942" class="h2">Portal do cliente</text>
<circle cx="114" cy="970" r="4" fill="#10B981"/>
<text x="128" y="976" class="body">
<tspan x="128" dy="0">Meus contratos</tspan>
</text>
<circle cx="114" cy="1000" r="4" fill="#10B981"/>
<text x="128" y="1006" class="body">
<tspan x="128" dy="0">Parcelas</tspan>
</text>
<circle cx="114" cy="1030" r="4" fill="#10B981"/>
<text x="128" y="1036" class="body">
<tspan x="128" dy="0">Saldo e vencimentos</tspan>
</text>
<circle cx="114" cy="1060" r="4" fill="#10B981"/>
<text x="128" y="1066" class="body">
<tspan x="128" dy="0">Comprovantes</tspan>
</text>
<circle cx="114" cy="1090" r="4" fill="#10B981"/>
<text x="128" y="1096" class="body">
<tspan x="128" dy="0">Documentos</tspan>
</text>
<circle cx="114" cy="1120" r="4" fill="#10B981"/>
<text x="128" y="1126" class="body">
<tspan x="128" dy="0">Atualização cadastral</tspan>
</text>
<circle cx="114" cy="1150" r="4" fill="#10B981"/>
<text x="128" y="1156" class="body">
<tspan x="128" dy="0">Suporte</tspan>
</text>
</g>
<g filter="url(#shadow)">
<rect x="610" y="900" width="460" height="580" rx="20" fill="#FFFFFF" stroke="#E5E7EB"/>
<rect x="610" y="900" width="8" height="580" rx="4" fill="#10B981"/>
<text x="638" y="942" class="h2">Administração SaaS</text>
<circle cx="644" cy="970" r="4" fill="#10B981"/>
<text x="658" y="976" class="body">
<tspan x="658" dy="0">Dashboard geral</tspan>
</text>
<circle cx="644" cy="1000" r="4" fill="#10B981"/>
<text x="658" y="1006" class="body">
<tspan x="658" dy="0">Empresas</tspan>
</text>
<circle cx="644" cy="1030" r="4" fill="#10B981"/>
<text x="658" y="1036" class="body">
<tspan x="658" dy="0">Usuários</tspan>
</text>
<circle cx="644" cy="1060" r="4" fill="#10B981"/>
<text x="658" y="1066" class="body">
<tspan x="658" dy="0">Planos</tspan>
</text>
<circle cx="644" cy="1090" r="4" fill="#10B981"/>
<text x="658" y="1096" class="body">
<tspan x="658" dy="0">Assinaturas</tspan>
</text>
<circle cx="644" cy="1120" r="4" fill="#10B981"/>
<text x="658" y="1126" class="body">
<tspan x="658" dy="0">Pagamentos</tspan>
</text>
<circle cx="644" cy="1150" r="4" fill="#10B981"/>
<text x="658" y="1156" class="body">
<tspan x="658" dy="0">Cupons</tspan>
</text>
<circle cx="644" cy="1180" r="4" fill="#10B981"/>
<text x="658" y="1186" class="body">
<tspan x="658" dy="0">Tickets</tspan>
</text>
<circle cx="644" cy="1210" r="4" fill="#10B981"/>
<text x="658" y="1216" class="body">
<tspan x="658" dy="0">Logs</tspan>
</text>
<circle cx="644" cy="1240" r="4" fill="#10B981"/>
<text x="658" y="1246" class="body">
<tspan x="658" dy="0">Auditoria</tspan>
</text>
<circle cx="644" cy="1270" r="4" fill="#10B981"/>
<text x="658" y="1276" class="body">
<tspan x="658" dy="0">Configuração da plataforma</tspan>
</text>
</g>
<g filter="url(#shadow)">
<rect x="1140" y="900" width="460" height="580" rx="20" fill="#FFFFFF" stroke="#E5E7EB"/>
<rect x="1140" y="900" width="8" height="580" rx="4" fill="#10B981"/>
<text x="1168" y="942" class="h2">Papéis e permissões</text>
<circle cx="1174" cy="970" r="4" fill="#10B981"/>
<text x="1188" y="976" class="body">
<tspan x="1188" dy="0">Administrador da plataforma</tspan>
</text>
<circle cx="1174" cy="1000" r="4" fill="#10B981"/>
<text x="1188" y="1006" class="body">
<tspan x="1188" dy="0">Proprietário da conta</tspan>
</text>
<circle cx="1174" cy="1030" r="4" fill="#10B981"/>
<text x="1188" y="1036" class="body">
<tspan x="1188" dy="0">Gerente</tspan>
</text>
<circle cx="1174" cy="1060" r="4" fill="#10B981"/>
<text x="1188" y="1066" class="body">
<tspan x="1188" dy="0">Cobrador</tspan>
</text>
<circle cx="1174" cy="1090" r="4" fill="#10B981"/>
<text x="1188" y="1096" class="body">
<tspan x="1188" dy="0">Atendente</tspan>
</text>
<circle cx="1174" cy="1120" r="4" fill="#10B981"/>
<text x="1188" y="1126" class="body">
<tspan x="1188" dy="0">Consulta</tspan>
</text>
<circle cx="1174" cy="1150" r="4" fill="#10B981"/>
<text x="1188" y="1156" class="body">
<tspan x="1188" dy="0">Cliente</tspan>
</text>
</g>
<g filter="url(#shadow)">
<rect x="80" y="1580" width="1520" height="420" rx="20" fill="#FFFFFF" stroke="#E5E7EB"/>
<rect x="80" y="1580" width="8" height="420" rx="4" fill="#2563EB"/>
<text x="108" y="1622" class="h2">Domínios de dados</text>
<circle cx="114" cy="1650" r="4" fill="#2563EB"/>
<text x="128" y="1656" class="body">
<tspan x="128" dy="0">Empresa / tenant: separação de dados entre contas</tspan>
</text>
<circle cx="114" cy="1680" r="4" fill="#2563EB"/>
<text x="128" y="1686" class="body">
<tspan x="128" dy="0">Usuários, perfis e permissões</tspan>
</text>
<circle cx="114" cy="1710" r="4" fill="#2563EB"/>
<text x="128" y="1716" class="body">
<tspan x="128" dy="0">Clientes, endereços, documentos e referências</tspan>
</text>
<circle cx="114" cy="1740" r="4" fill="#2563EB"/>
<text x="128" y="1746" class="body">
<tspan x="128" dy="0">Contratos, garantias, anexos e renegociações</tspan>
</text>
<circle cx="114" cy="1770" r="4" fill="#2563EB"/>
<text x="128" y="1776" class="body">
<tspan x="128" dy="0">Parcelas, pagamentos, estornos, descontos e acréscimos</tspan>
</text>
<circle cx="114" cy="1800" r="4" fill="#2563EB"/>
<text x="128" y="1806" class="body">
<tspan x="128" dy="0">Notificações, mensagens, comprovantes e auditoria</tspan>
</text>
<circle cx="114" cy="1830" r="4" fill="#2563EB"/>
<text x="128" y="1836" class="body">
<tspan x="128" dy="0">Planos, assinaturas, limites e faturamento</tspan>
</text>
</g>
<g filter="url(#shadow)">
<rect x="80" y="2050" width="1520" height="420" rx="20" fill="#FFFFFF" stroke="#E5E7EB"/>
<rect x="80" y="2050" width="8" height="420" rx="4" fill="#7C3AED"/>
<text x="108" y="2092" class="h2">Navegação principal</text>
<circle cx="114" cy="2120" r="4" fill="#7C3AED"/>
<text x="128" y="2126" class="body">
<tspan x="128" dy="0">Mobile: Início · Contratos · Clientes · Relatórios · Ajustes</tspan>
</text>
<circle cx="114" cy="2150" r="4" fill="#7C3AED"/>
<text x="128" y="2156" class="body">
<tspan x="128" dy="0">Web: Visão geral · Clientes · Contratos · Parcelas · Recebimentos · Cobranças · Cobradores · Relatórios · Notificações ·</tspan>
<tspan x="128" dy="23">Documentos · Configurações</tspan>
</text>
<circle cx="114" cy="2203" r="4" fill="#7C3AED"/>
<text x="128" y="2209" class="body">
<tspan x="128" dy="0">Ações globais: Novo cliente · Novo contrato · Registrar pagamento · Gerar relatório</tspan>
</text>
</g>
</svg>