<svg xmlns="http://www.w3.org/2000/svg" width="1800" height="2500" viewBox="0 0 1800 2500">
    <title>Jurex — Wireframes iniciais</title>
    <defs>
      <filter id="shadow" x="-20%" y="-20%" width="140%" height="140%">
        <feDropShadow dx="0" dy="6" stdDeviation="10" flood-opacity="0.12"/>
      </filter>
      <style>
        .title { font: 700 44px Inter, Arial, sans-serif; fill:#111827; }
        .subtitle { font: 500 22px Inter, Arial, sans-serif; fill:#4B5563; }
        .h1 { font: 700 30px Inter, Arial, sans-serif; fill:#111827; }
        .h2 { font: 700 22px Inter, Arial, sans-serif; fill:#111827; }
        .body { font: 400 17px Inter, Arial, sans-serif; fill:#374151; }
        .small { font: 400 14px Inter, Arial, sans-serif; fill:#6B7280; }
        .label { font: 600 14px Inter, Arial, sans-serif; fill:#065F46; }
      </style>
    </defs>
    <rect width="100%" height="100%" fill="#F8FAFC"/>
    
<text x="80" y="95" class="title">JUREX — Wireframes iniciais</text>
<text x="80" y="135" class="subtitle">Blocos-base para redesenhar como componentes e frames no Figma</text>
<text x="80" y="220" class="h1">Mobile — Dashboard</text>
<rect x="80" y="260" width="390" height="844" rx="36" fill="#FFFFFF" stroke="#CBD5E1" stroke-width="3"/>
<rect x="100" y="288" width="350" height="58" rx="16" fill="#F1F5F9"/>
<rect x="100" y="364" width="350" height="180" rx="20" fill="#ECFDF5" stroke="#A7F3D0"/>
<rect x="100" y="566" width="350" height="84" rx="18" fill="#F8FAFC" stroke="#E2E8F0"/>
<rect x="100" y="670" width="350" height="84" rx="18" fill="#F8FAFC" stroke="#E2E8F0"/>
<rect x="100" y="774" width="350" height="84" rx="18" fill="#F8FAFC" stroke="#E2E8F0"/>
<rect x="100" y="878" width="350" height="84" rx="18" fill="#F8FAFC" stroke="#E2E8F0"/>
<rect x="100" y="1004" width="350" height="72" rx="18" fill="#F1F5F9"/>
<text x="560" y="220" class="h1">Web — Dashboard</text>
<rect x="560" y="260" width="1160" height="844" rx="24" fill="#FFFFFF" stroke="#CBD5E1" stroke-width="3"/>
<rect x="560" y="260" width="230" height="844" rx="24" fill="#111827"/>
<rect x="810" y="284" width="886" height="64" rx="16" fill="#F1F5F9"/>
<rect x="810" y="372" width="195" height="130" rx="18" fill="#F8FAFC" stroke="#E2E8F0"/>
<rect x="1025" y="372" width="195" height="130" rx="18" fill="#F8FAFC" stroke="#E2E8F0"/>
<rect x="1240" y="372" width="195" height="130" rx="18" fill="#F8FAFC" stroke="#E2E8F0"/>
<rect x="1455" y="372" width="195" height="130" rx="18" fill="#F8FAFC" stroke="#E2E8F0"/>
<rect x="810" y="530" width="560" height="300" rx="18" fill="#F8FAFC" stroke="#E2E8F0"/>
<rect x="1390" y="530" width="300" height="300" rx="18" fill="#F8FAFC" stroke="#E2E8F0"/>
<rect x="810" y="854" width="880" height="220" rx="18" fill="#F8FAFC" stroke="#E2E8F0"/>
<text x="80" y="1220" class="h1">Mobile — Novo contrato</text>
<rect x="80" y="1260" width="390" height="844" rx="36" fill="#FFFFFF" stroke="#CBD5E1" stroke-width="3"/>
<rect x="100" y="1288" width="350" height="64" rx="16" fill="#F1F5F9"/>
<circle cx="124" cy="1380" r="11" fill="#10B981"/>
<circle cx="181" cy="1380" r="11" fill="#E2E8F0"/>
<circle cx="238" cy="1380" r="11" fill="#E2E8F0"/>
<circle cx="295" cy="1380" r="11" fill="#E2E8F0"/>
<circle cx="352" cy="1380" r="11" fill="#E2E8F0"/>
<circle cx="409" cy="1380" r="11" fill="#E2E8F0"/>
<rect x="100" y="1420" width="350" height="68" rx="14" fill="#FFFFFF" stroke="#CBD5E1"/>
<rect x="100" y="1510" width="350" height="68" rx="14" fill="#FFFFFF" stroke="#CBD5E1"/>
<rect x="100" y="1600" width="350" height="68" rx="14" fill="#FFFFFF" stroke="#CBD5E1"/>
<rect x="100" y="1690" width="350" height="68" rx="14" fill="#FFFFFF" stroke="#CBD5E1"/>
<rect x="100" y="1780" width="350" height="68" rx="14" fill="#FFFFFF" stroke="#CBD5E1"/>
<rect x="100" y="2000" width="350" height="64" rx="16" fill="#10B981"/>
<text x="560" y="1220" class="h1">Web — Lista de clientes</text>
<rect x="560" y="1260" width="1160" height="844" rx="24" fill="#FFFFFF" stroke="#CBD5E1" stroke-width="3"/>
<rect x="560" y="1260" width="230" height="844" rx="24" fill="#111827"/>
<rect x="810" y="1284" width="886" height="64" rx="16" fill="#F1F5F9"/>
<rect x="810" y="1372" width="886" height="72" rx="16" fill="#F8FAFC" stroke="#E2E8F0"/>
<rect x="810" y="1470" width="886" height="60" rx="10" fill="#FFFFFF" stroke="#E5E7EB"/>
<rect x="810" y="1546" width="886" height="60" rx="10" fill="#FFFFFF" stroke="#E5E7EB"/>
<rect x="810" y="1622" width="886" height="60" rx="10" fill="#FFFFFF" stroke="#E5E7EB"/>
<rect x="810" y="1698" width="886" height="60" rx="10" fill="#FFFFFF" stroke="#E5E7EB"/>
<rect x="810" y="1774" width="886" height="60" rx="10" fill="#FFFFFF" stroke="#E5E7EB"/>
<rect x="810" y="1850" width="886" height="60" rx="10" fill="#FFFFFF" stroke="#E5E7EB"/>
<rect x="810" y="1926" width="886" height="60" rx="10" fill="#FFFFFF" stroke="#E5E7EB"/>
</svg>