<svg xmlns="http://www.w3.org/2000/svg" width="320" height="320" viewBox="0 0 47 47" shape-rendering="crispEdges"><path fill="#ffffff" d="M0 0h47v47H0z"/><path stroke="#081016" d="M1 1.5h7m9 0h1m1 0h2m1 0h1m1 0h3m1 0h1m1 0h3m1 0h1m2 0h1m1 0h7M1 2.5h1m5 0h1m4 0h6m1 0h1m1 0h2m1 0h2m1 0h1m2 0h1m5 0h1m2 0h1m5 0h1M1 3.5h1m1 0h3m1 0h1m1 0h1m2 0h4m4 0h4m1 0h5m1 0h2m3 0h1m2 0h1m1 0h3m1 0h1M1 4.5h1m1 0h3m1 0h1m1 0h1m3 0h3m1 0h1m1 0h2m1 0h2m1 0h1m1 0h2m7 0h2m1 0h1m1 0h3m1 0h1M1 5.5h1m1 0h3m1 0h1m1 0h1m1 0h2m1 0h2m5 0h10m2 0h1m1 0h3m1 0h1m1 0h3m1 0h1M1 6.5h1m5 0h1m1 0h2m3 0h1m1 0h2m1 0h1m1 0h1m3 0h1m3 0h1m1 0h1m1 0h2m4 0h1m5 0h1M1 7.5h7m1 0h1m1 0h1m1 0h1m1 0h1m1 0h1m1 0h1m1 0h1m1 0h1m1 0h1m1 0h1m1 0h1m1 0h1m1 0h1m1 0h1m1 0h1m1 0h7M9 8.5h4m1 0h1m1 0h1m1 0h2m1 0h1m3 0h1m2 0h1m1 0h1m2 0h2M1 9.5h1m1 0h5m5 0h2m1 0h2m1 0h11m2 0h2m1 0h1m1 0h1m1 0h5M1 10.5h2m1 0h1m1 0h1m1 0h1m4 0h1m1 0h2m1 0h2m1 0h1m3 0h2m2 0h3m1 0h5m2 0h1M4 11.5h2m1 0h1m1 0h1m4 0h1m3 0h2m3 0h2m3 0h1m4 0h1m2 0h2m5 0h1M3 12.5h1m2 0h1m2 0h2m1 0h1m4 0h5m8 0h2m2 0h1m1 0h3m4 0h1M1 13.5h2m1 0h1m1 0h2m6 0h1m1 0h4m1 0h4m3 0h1m2 0h4m4 0h1m1 0h1M1 14.5h1m1 0h1m1 0h1m2 0h2m2 0h3m2 0h2m1 0h3m4 0h1m3 0h1m2 0h3m1 0h1m2 0h2m2 0h1M1 15.5h1m3 0h3m1 0h1m7 0h1m1 0h3m2 0h1m2 0h2m2 0h1m5 0h1m2 0h1m1 0h2M6 16.5h1m2 0h1m4 0h1m1 0h1m3 0h1m1 0h1m2 0h1m3 0h1m1 0h3m1 0h1m1 0h2m1 0h1m1 0h2M4 17.5h4m2 0h1m1 0h1m1 0h3m2 0h2m3 0h1m2 0h2m1 0h1m2 0h1m2 0h2m1 0h2M4 18.5h1m1 0h1m1 0h1m2 0h2m3 0h2m2 0h4m1 0h3m1 0h1m1 0h3m3 0h2m1 0h1m4 0h1M1 19.5h1m5 0h1m2 0h1m1 0h6m1 0h1m2 0h1m2 0h1m1 0h2m1 0h2m1 0h1m2 0h1m1 0h1m4 0h3M1 20.5h1m4 0h1m2 0h2m2 0h1m1 0h1m3 0h1m3 0h1m1 0h1m4 0h2m5 0h1m1 0h3m1 0h2M1 21.5h9m1 0h1m1 0h1m5 0h8m2 0h1m2 0h1m1 0h1m1 0h6m1 0h1M2 22.5h1m1 0h2m3 0h1m1 0h2m2 0h3m1 0h1m1 0h1m3 0h1m2 0h3m2 0h2m2 0h1m3 0h1m1 0h1m1 0h1M1 23.5h5m1 0h1m1 0h1m2 0h3m1 0h1m1 0h1m1 0h2m1 0h1m1 0h2m4 0h1m2 0h4m1 0h1m1 0h2m1 0h2M1 24.5h3m1 0h1m3 0h1m1 0h1m1 0h1m1 0h1m1 0h1m3 0h1m3 0h1m1 0h1m1 0h1m3 0h2m2 0h1m3 0h1m1 0h1m1 0h1M2 25.5h2m1 0h9m2 0h3m1 0h8m2 0h2m4 0h6m3 0h1M2 26.5h1m2 0h1m3 0h1m1 0h1m7 0h3m1 0h1m2 0h2m3 0h1m4 0h1m2 0h3m1 0h1M1 27.5h1m1 0h1m1 0h1m1 0h2m3 0h1m4 0h1m4 0h2m4 0h1m1 0h2m1 0h1m1 0h1m1 0h1m2 0h1m4 0h1M1 28.5h1m1 0h1m1 0h2m2 0h2m3 0h1m5 0h1m3 0h5m1 0h1m5 0h1m1 0h4m2 0h2M1 29.5h1m1 0h2m2 0h2m2 0h2m1 0h2m5 0h1m7 0h1m2 0h1m1 0h1m2 0h2m1 0h4M1 30.5h1m3 0h1m3 0h4m3 0h1m1 0h2m3 0h1m1 0h1m2 0h3m2 0h1m1 0h1m1 0h3m2 0h2M1 31.5h1m3 0h3m2 0h2m1 0h4m4 0h1m2 0h3m2 0h1m1 0h2m1 0h4M2 32.5h2m2 0h1m1 0h2m2 0h1m2 0h2m8 0h1m2 0h2m1 0h3m1 0h2m2 0h5M1 33.5h1m4 0h2m2 0h1m2 0h1m2 0h2m1 0h1m4 0h2m1 0h1m2 0h1m1 0h1m3 0h2m3 0h1m2 0h2M3 34.5h4m2 0h1m2 0h2m1 0h2m2 0h1m1 0h2m2 0h2m1 0h1m2 0h4m1 0h2M5 35.5h1m1 0h2m2 0h1m1 0h1m2 0h1m1 0h2m3 0h1m1 0h2m1 0h1m1 0h2m1 0h1m1 0h1m3 0h1m1 0h4M2 36.5h4m3 0h3m1 0h2m3 0h1m2 0h4m1 0h4m3 0h2m1 0h1m4 0h3M1 37.5h1m2 0h2m1 0h1m1 0h2m3 0h1m1 0h1m2 0h1m1 0h5m1 0h1m1 0h1m3 0h1m3 0h6m1 0h1M9 38.5h5m2 0h2m2 0h2m3 0h6m1 0h1m2 0h1m1 0h1m3 0h3m1 0h1M1 39.5h7m3 0h2m1 0h2m1 0h1m2 0h2m1 0h1m1 0h1m6 0h1m1 0h1m2 0h1m1 0h1m1 0h3M1 40.5h1m5 0h1m1 0h2m1 0h2m1 0h3m3 0h1m3 0h1m5 0h1m1 0h2m2 0h1m3 0h1m1 0h1M1 41.5h1m1 0h3m1 0h1m1 0h1m1 0h3m1 0h3m2 0h6m2 0h1m2 0h2m2 0h1m1 0h5m1 0h1M1 42.5h1m1 0h3m1 0h1m1 0h3m1 0h2m1 0h1m1 0h1m1 0h2m1 0h2m2 0h1m1 0h2m1 0h1m1 0h1m1 0h1m2 0h1m1 0h1M1 43.5h1m1 0h3m1 0h1m1 0h1m6 0h2m1 0h4m1 0h2m2 0h2m2 0h1m2 0h1m1 0h2m1 0h2M1 44.5h1m5 0h1m3 0h1m2 0h3m2 0h1m1 0h2m2 0h1m5 0h1m1 0h4m2 0h2m3 0h1M1 45.5h7m1 0h1m1 0h2m2 0h1m1 0h1m2 0h2m1 0h2m3 0h1m1 0h7m3 0h2"/></svg>
