<svg xmlns="http://www.w3.org/2000/svg" viewBox="0 0 49 49" shape-rendering="crispEdges"><path fill="#ffffff" d="M0 0h49v49H0z"/><path stroke="#081016" d="M2 2.5h7m5 0h1m1 0h2m1 0h3m1 0h1m2 0h1m1 0h2m1 0h3m1 0h1m2 0h1m1 0h7M2 3.5h1m5 0h1m2 0h1m1 0h4m1 0h1m1 0h1m2 0h1m7 0h1m5 0h1m2 0h1m5 0h1M2 4.5h1m1 0h3m1 0h1m1 0h1m3 0h1m1 0h4m5 0h6m2 0h1m3 0h1m2 0h1m1 0h3m1 0h1M2 5.5h1m1 0h3m1 0h1m1 0h1m1 0h2m1 0h3m3 0h2m5 0h1m8 0h2m1 0h1m1 0h3m1 0h1M2 6.5h1m1 0h3m1 0h1m1 0h1m1 0h1m1 0h3m2 0h1m2 0h7m1 0h3m1 0h1m1 0h3m1 0h1m1 0h3m1 0h1M2 7.5h1m5 0h1m1 0h4m1 0h4m1 0h1m1 0h1m3 0h1m2 0h1m1 0h1m3 0h1m4 0h1m5 0h1M2 8.5h7m1 0h1m1 0h1m1 0h1m1 0h1m1 0h1m1 0h1m1 0h1m1 0h1m1 0h1m1 0h1m1 0h1m1 0h1m1 0h1m1 0h1m1 0h1m1 0h7M10 9.5h3m1 0h2m3 0h2m1 0h1m3 0h1m2 0h1m1 0h1m2 0h2M2 10.5h1m1 0h5m2 0h2m1 0h5m1 0h11m3 0h1m1 0h1m1 0h1m1 0h5M2 11.5h2m1 0h2m2 0h1m1 0h2m2 0h6m2 0h1m2 0h2m2 0h1m3 0h3m1 0h1m3 0h1M3 12.5h2m1 0h1m1 0h2m1 0h1m1 0h4m1 0h1m1 0h1m4 0h1m3 0h1m1 0h3m8 0h1m1 0h1M2 13.5h2m1 0h3m2 0h1m1 0h2m1 0h1m3 0h4m4 0h1m1 0h1m2 0h1m2 0h1m3 0h1m3 0h1M2 14.5h1m1 0h1m2 0h3m3 0h1m4 0h3m1 0h1m1 0h2m1 0h1m1 0h1m2 0h2m2 0h3m2 0h1m1 0h2M3 15.5h2m4 0h1m2 0h2m2 0h2m2 0h4m1 0h1m1 0h1m1 0h3m3 0h1m1 0h2m2 0h1m1 0h4M4 16.5h2m1 0h2m1 0h1m4 0h8m3 0h5m4 0h2m1 0h2m1 0h1m1 0h1m2 0h1M2 17.5h1m1 0h2m3 0h3m1 0h3m4 0h2m1 0h1m4 0h1m1 0h1m1 0h4m1 0h3m2 0h1m1 0h1m1 0h1M3 18.5h1m2 0h1m1 0h2m1 0h1m2 0h1m1 0h3m3 0h1m6 0h1m1 0h1m2 0h1m1 0h3m1 0h1m1 0h1m2 0h1M3 19.5h1m5 0h2m2 0h2m1 0h4m1 0h1m1 0h5m2 0h1m1 0h4m2 0h1m1 0h2M2 20.5h2m1 0h2m1 0h2m2 0h1m3 0h2m2 0h1m5 0h3m2 0h2m1 0h4m1 0h3m1 0h2m1 0h1M2 21.5h4m1 0h1m1 0h2m5 0h1m6 0h3m3 0h6m1 0h1m2 0h1m4 0h1m1 0h1M4 22.5h7m1 0h1m2 0h1m2 0h1m3 0h6m3 0h4m2 0h8m1 0h1M2 23.5h3m1 0h1m3 0h2m1 0h1m1 0h4m3 0h1m3 0h1m4 0h2m2 0h1m1 0h2m3 0h1m1 0h3M2 24.5h1m1 0h1m1 0h1m1 0h1m1 0h1m1 0h1m5 0h2m1 0h2m1 0h1m1 0h2m1 0h1m1 0h1m1 0h2m3 0h1m1 0h1m1 0h2m1 0h2M4 25.5h1m1 0h1m3 0h1m1 0h2m3 0h1m4 0h1m3 0h1m1 0h1m1 0h1m3 0h2m1 0h2m3 0h1m1 0h1M2 26.5h1m3 0h6m4 0h1m2 0h1m2 0h7m5 0h1m2 0h6m3 0h1M2 27.5h3m1 0h1m11 0h1m1 0h1m2 0h3m1 0h2m5 0h1m2 0h1m3 0h1m2 0h1M3 28.5h2m3 0h3m4 0h1m1 0h1m1 0h3m4 0h1m2 0h1m1 0h1m4 0h2m5 0h1m2 0h1M2 29.5h1m2 0h1m1 0h1m1 0h1m3 0h2m2 0h4m2 0h2m7 0h4m5 0h1m3 0h2M6 30.5h1m1 0h2m1 0h1m2 0h1m3 0h1m2 0h3m1 0h5m3 0h1m1 0h1m2 0h2m1 0h4M3 31.5h5m2 0h1m2 0h2m1 0h5m2 0h1m2 0h2m2 0h2m7 0h4m1 0h1m1 0h1M2 32.5h2m1 0h1m2 0h3m1 0h5m1 0h1m3 0h2m1 0h4m6 0h1m7 0h2M3 33.5h1m1 0h2m3 0h1m1 0h1m1 0h4m2 0h1m5 0h1m3 0h1m1 0h3m1 0h1m3 0h3m1 0h1m1 0h1M4 34.5h3m1 0h1m2 0h1m1 0h2m2 0h2m1 0h1m2 0h1m1 0h2m4 0h1m1 0h1m1 0h1m5 0h1m1 0h2M6 35.5h1m2 0h4m1 0h5m1 0h5m1 0h1m5 0h3m1 0h1m2 0h1m1 0h1m2 0h2M6 36.5h1m1 0h1m4 0h1m1 0h3m3 0h2m1 0h5m2 0h2m1 0h2m1 0h1m1 0h1m1 0h2m1 0h3M3 37.5h4m3 0h1m2 0h4m1 0h1m1 0h2m1 0h2m2 0h4m1 0h1m1 0h1m1 0h1m1 0h1m5 0h3M2 38.5h1m2 0h2m1 0h2m3 0h2m2 0h3m1 0h6m1 0h1m2 0h1m2 0h1m1 0h7m1 0h3M10 39.5h2m1 0h1m2 0h1m2 0h1m2 0h1m3 0h4m2 0h5m1 0h1m3 0h3M2 40.5h7m2 0h1m2 0h2m3 0h1m1 0h2m1 0h1m1 0h1m2 0h1m4 0h1m3 0h1m1 0h1m1 0h3m1 0h1M2 41.5h1m5 0h1m1 0h2m1 0h2m1 0h2m3 0h2m3 0h1m4 0h5m2 0h1m3 0h1m1 0h2M2 42.5h1m1 0h3m1 0h1m1 0h2m3 0h2m2 0h2m1 0h6m1 0h1m2 0h1m3 0h1m1 0h5m1 0h1M2 43.5h1m1 0h3m1 0h1m1 0h1m5 0h3m1 0h1m3 0h3m1 0h1m1 0h1m1 0h1m2 0h1m1 0h1m3 0h2m1 0h1M2 44.5h1m1 0h3m1 0h1m1 0h1m1 0h1m5 0h3m1 0h2m2 0h1m2 0h5m2 0h1m2 0h3M2 45.5h1m5 0h1m5 0h3m2 0h3m1 0h1m5 0h2m1 0h4m2 0h1m2 0h3m1 0h1M2 46.5h7m1 0h2m1 0h2m1 0h1m1 0h4m3 0h4m1 0h1m1 0h2m3 0h5m1 0h2"/></svg>
